<svg width="82" height="25" viewBox="0 0 82 25" fill="none" xmlns="http://www.w3.org/2000/svg">
<g clip-path="url(#clip0_3_42)">
<path d="M18.9621 0.5H11.1906L13.5904 8.01092H21.362L15.0764 12.484L17.4762 20.0348C21.5209 17.0767 22.8479 12.5956 21.362 8.00295L18.9621 0.5ZM1.0192 8.01092H8.79077L11.1906 0.5H3.41901L1.0192 8.01092C-0.466772 12.6036 0.860275 17.0846 4.90499 20.0428L7.3048 12.492L1.0192 8.01092ZM4.90499 20.0348L11.1906 24.4999L17.4762 20.0348L11.1906 15.49L4.90499 20.0348ZM63.5573 7.81956C61.7217 7.81956 60.5456 8.65677 59.9973 10.0202H59.8543V3.84085H57.0969V20.0029H59.9178V12.9863C59.9178 11.2481 60.9906 10.2514 62.5084 10.2514C63.9864 10.2514 64.8605 11.2003 64.8605 12.8189V20.0029H67.6814V12.3484C67.6735 9.43816 66.0365 7.81956 63.5573 7.81956ZM75.302 3.80895C71.4878 3.80895 69.1833 6.80694 69.1754 12.0136C69.1754 17.2361 71.4639 20.274 75.302 20.274C79.1322 20.282 81.4287 17.2441 81.4287 12.0136C81.4208 6.81492 79.1163 3.80895 75.302 3.80895ZM72.0917 12.0136C72.0996 8.21026 73.3313 6.20894 75.302 6.20894C76.6529 6.20894 77.6542 7.13385 78.1548 8.92786L72.1394 13.3132C72.1076 12.9146 72.0917 12.476 72.0917 12.0136ZM75.302 17.8421C73.9114 17.8421 72.8863 16.8534 72.4016 14.9398L78.4488 10.5305C78.4965 10.993 78.5203 11.4873 78.5203 12.0215C78.5203 15.8488 77.2886 17.8421 75.302 17.8421ZM44.3985 14.9557C44.3985 16.7816 43.0953 17.6906 41.8477 17.6906C40.4889 17.6906 39.591 16.7258 39.591 15.2029V7.99498H36.77V15.6415C36.77 18.5278 38.407 20.1624 40.7591 20.1624C42.555 20.1624 43.8105 19.2135 44.3588 17.874H44.4859V20.0109H47.2195V7.99498H44.3985V14.9557ZM30.389 7.81159C27.87 7.81159 25.9391 8.93584 25.3193 11.1285L27.9495 11.5033C28.2276 10.682 29.0223 9.98035 30.4049 9.98035C31.7161 9.98035 32.4313 10.6501 32.4313 11.8302V11.878C32.4313 12.6913 31.581 12.7312 29.4673 12.9544C27.1469 13.2016 24.9219 13.9033 24.9219 16.6062C24.9219 18.9664 26.6463 20.2182 28.9269 20.2182C30.8023 20.2182 31.9227 19.3331 32.4392 18.3285H32.5346V19.979H35.2443V11.9418C35.2522 8.7684 32.6776 7.81159 30.389 7.81159ZM32.4392 15.6654C32.4392 17.0049 31.3665 18.1371 29.6659 18.1371C28.4899 18.1371 27.6475 17.5949 27.6475 16.5584C27.6475 15.474 28.5932 15.0195 29.8487 14.8361C30.5877 14.7325 32.0657 14.5491 32.4392 14.2461V15.6654ZM53.2429 4.98901H50.4219V7.99498H48.7134V10.2514H50.4219V16.9012C50.406 19.1577 52.043 20.274 54.1646 20.2102C54.8004 20.1943 55.2771 20.0906 55.6029 19.9949V17.7544C55.3884 17.7863 54.8878 17.8501 54.5302 17.8581C53.8229 17.874 53.2508 17.6109 53.2508 16.4627V10.2514H55.6029V8.00295H53.2429V4.98901Z" fill="white"/>
</g>
<defs>
<clipPath id="clip0_3_42">
<rect width="81" height="24" fill="white" transform="translate(0.428711 0.5)"/>
</clipPath>
</defs>
</svg>
