<svg width="47" height="31" viewBox="0 0 47 31" fill="none" xmlns="http://www.w3.org/2000/svg">
<g clip-path="url(#clip0_3_44)">
<path d="M45.6387 22.8333C46.1947 23.6111 46.0835 24.6111 45.4163 25.1667C44.6379 25.7222 43.5259 25.6111 42.9699 24.9444L39.0779 19.9444L35.2971 24.8333C34.7411 25.6111 33.6291 25.6111 32.8507 25.0556C32.0723 24.5 31.9611 23.5 32.5171 22.7222L36.9651 16.9444L32.5171 11.1667C31.9611 10.3889 32.1835 9.27778 32.8507 8.72222C33.6291 8.16667 34.7411 8.38889 35.2971 9.05556L39.0779 14.0556L42.9699 9.27778C43.5259 8.5 44.5267 8.38889 45.4163 8.94444C46.1947 9.5 46.1947 10.6111 45.6387 11.3889L41.3019 17.0556L45.6387 22.8333ZM25.4003 22.1667C22.5091 22.1667 20.1739 19.9444 20.1739 17.0556C20.1739 14.2778 22.5091 11.9444 25.4003 11.9444C28.2915 11.9444 30.6267 14.2778 30.6267 17.0556C30.5155 19.9444 28.1803 22.1667 25.4003 22.1667ZM10.0547 22.1667C7.16351 22.1667 4.82831 19.9444 4.82831 17.0556C4.82831 14.2778 7.16351 11.9444 10.0547 11.9444C12.9459 11.9444 15.2811 14.2778 15.2811 17.0556C15.2811 19.9444 12.9459 22.1667 10.0547 22.1667ZM25.4003 8.61111C22.1755 8.61111 19.2843 10.3889 17.8387 13.0556C16.3931 10.3889 13.5019 8.61111 10.1659 8.61111C8.16431 8.61111 6.38511 9.27778 4.93951 10.2778V3.16667C4.93951 2.27778 4.16111 1.5 3.27151 1.5C2.27071 1.5 1.49231 2.27778 1.49231 3.16667V17.1667C1.60351 21.8333 5.38431 25.5 10.0547 25.5C13.3907 25.5 16.2819 23.6111 17.7275 20.9444C19.1731 23.6111 22.0643 25.5 25.2891 25.5C30.0707 25.5 33.9627 21.7222 33.9627 16.9444C34.0739 12.3889 30.1819 8.61111 25.4003 8.61111Z" fill="white"/>
</g>
<defs>
<clipPath id="clip0_3_44">
<rect width="46" height="30" fill="white" transform="translate(0.714478 0.5)"/>
</clipPath>
</defs>
</svg>
