<svg width="57" height="27" viewBox="0 0 57 27" fill="none" xmlns="http://www.w3.org/2000/svg">
<g clip-path="url(#clip0_3_46)">
<path fill-rule="evenodd" clip-rule="evenodd" d="M53.2502 15.3993C53.2502 15.8543 54.0202 15.9681 54.4602 15.9681L54.4668 15.9726C54.9079 15.9726 56.3401 15.6314 56.1201 13.9252C56.0068 12.674 54.5801 11.9916 53.0401 11.9916C51.1812 11.9916 49.5928 13.038 48.5192 14.4484C48.3398 14.5278 48.1887 14.663 48.0869 14.8352C47.6469 15.2901 47.0969 15.6314 46.217 15.6314H45.887C46.437 14.6077 46.767 13.4702 46.767 12.4465C46.767 10.8541 45.887 10.0579 44.787 10.0579C43.467 10.0579 42.037 11.3091 42.037 13.6977C42.037 15.0627 42.587 16.2001 43.577 16.8826C42.477 18.8162 40.9371 20.2949 40.7171 20.2949C40.6071 20.2949 40.4971 20.1811 40.4971 20.0674C40.2771 19.3849 40.1671 18.2475 40.1671 17.4513C40.1671 16.0864 40.4971 14.7214 40.9371 13.2427C41.0471 13.129 41.0471 12.9015 41.0471 12.7878C41.0471 12.4465 40.7171 12.2191 40.3871 12.2191C39.7271 12.2191 38.6271 13.0153 38.4071 13.9252C38.1871 14.7214 38.0771 15.8589 38.0771 17.2238C38.0771 17.3663 38.0834 17.5074 38.0896 17.6486C38.0931 17.7295 38.0967 17.8103 38.0991 17.8915L38.0771 17.9051C36.7571 19.725 35.1072 20.4075 34.5572 20.4075C34.0072 20.4075 33.8972 19.9525 33.8972 19.4975C34.2272 17.7914 34.7772 15.8577 35.2172 14.6065C35.4372 14.0378 35.4372 13.4691 35.4372 13.1279C35.4372 12.5591 34.9972 12.2179 34.4472 12.2179C33.1272 12.2179 31.0373 13.5828 29.6073 15.5165L30.0473 13.4691V13.0141C29.9373 12.5591 29.7173 12.4454 29.3873 12.4454C27.8473 12.4454 27.5173 13.2416 27.4073 14.0378C27.4073 14.2346 26.9706 16.5834 26.5966 18.5398C25.5033 19.4657 24.3978 20.064 24.1063 20.064C23.6663 20.064 23.5563 19.7227 23.5563 19.4953C23.4463 19.154 23.7763 17.7891 23.8863 17.3341V16.8791C23.7763 16.4242 23.5563 16.3104 23.2263 16.3104C22.4563 16.3104 21.5763 16.9929 21.3563 18.0166C21.0263 19.4953 20.0364 20.519 19.3764 20.519C18.4964 20.519 18.0564 19.609 17.9464 18.6991C17.6164 16.6517 18.9364 13.3531 21.2463 13.3531C21.9063 13.3531 22.5663 13.5806 22.6763 14.263C22.7415 14.8702 22.3812 15.0372 22.1001 15.1675C21.9072 15.2569 21.7516 15.3291 21.7963 15.5142C21.7963 15.9692 22.5663 16.0829 23.0063 16.0829C23.4463 16.0829 24.8763 15.8555 24.6563 14.1493C24.5463 12.8981 23.2263 12.2156 21.5763 12.2156C17.8958 12.2156 15.4021 16.0682 15.6364 19.0062C14.6795 20.0981 13.7225 20.7806 12.1165 21.6564C11.1265 22.1114 10.0266 22.4526 9.03661 22.4526C5.95667 22.4526 4.5267 19.4953 4.1967 16.9929C3.42672 10.5095 8.92661 1.63744 12.7765 1.63744C13.6565 1.63744 14.5365 2.43365 14.6465 3.68484C14.8665 5.61848 14.8665 6.98341 12.8865 8.68957C12.6665 8.91706 12.5565 9.14455 12.6665 9.37204C12.8865 9.71327 13.3265 9.71327 14.4265 9.14455C16.5164 8.12085 17.2864 6.41469 17.0664 4.48104C16.8464 2.31991 14.9765 0.5 12.5565 0.5C11.3465 0.5 10.1366 0.954976 8.92661 1.63744C3.86671 4.82227 0.566773 11.9882 1.22676 17.5616C1.33676 19.3815 2.10674 21.3152 3.42672 22.5663C4.3067 23.4763 5.95667 24.5 7.82663 24.5C9.91659 24.5 11.6765 23.7038 13.2165 22.6801C14.2725 21.9772 15.1668 21.0558 15.9477 20.1459C16.4812 21.314 17.5856 22.1102 18.7142 22.1102C19.7042 22.1102 20.4742 21.6553 21.1341 20.7453C21.2441 21.5415 21.7941 22.1102 22.7841 22.1102C23.4386 22.1102 24.8378 21.4551 26.2325 20.4268L26.0829 21.2003V21.6553C26.1929 22.1102 26.4129 22.224 26.7429 22.224C27.4029 22.224 28.3929 21.5415 28.6129 20.5178L28.9429 19.0391C29.3829 17.2192 31.9128 14.4894 32.6828 14.4894C32.7928 14.4894 32.9028 14.6031 32.9028 14.7169C32.9028 14.8743 32.7975 15.1543 32.646 15.5568C32.3597 16.3177 31.9087 17.5164 31.6928 19.1529V20.4041C31.8028 21.5415 32.4628 22.224 33.5628 22.224C34.5484 22.224 36.679 21.3027 38.2223 19.5544C38.3422 20.4655 38.5391 21.264 38.8416 21.769C38.9516 21.9965 39.2816 22.1102 39.5016 22.1102C39.8316 22.1102 40.2716 21.9965 40.7116 21.769C41.8116 21.0865 43.3515 19.6079 44.7815 17.4467H45.3315C45.9761 17.4467 46.6768 17.2045 47.329 16.7722C47.1124 17.5036 47.0134 18.2407 47.0904 18.9254C47.3103 20.6316 48.7403 21.9965 50.1703 21.9965C51.0503 21.9965 51.8203 21.5415 52.4802 20.7453C52.7002 21.8827 53.3602 23.0202 55.0102 23.7027C55.1202 23.8164 55.2302 23.8164 55.3402 23.8164C55.6702 23.8164 55.7802 23.5889 55.7802 23.3614C55.7802 23.3614 55.6702 23.1339 55.5602 23.0202C55.1202 22.679 54.6802 21.9965 54.5702 21.0865C54.4602 20.6316 54.4602 20.0628 55.0102 19.0391C55.4502 17.5605 55.4502 17.1055 55.4502 16.878C55.3402 16.423 55.1202 16.3093 54.7902 16.3093C54.0202 16.3093 53.1402 17.1055 52.9202 18.0154C52.4802 19.4941 51.4903 20.5178 50.8303 20.5178C49.9503 20.5178 49.5103 19.4941 49.4003 18.5842C49.0703 16.1955 50.5003 13.2382 52.7002 13.2382C53.3602 13.2382 54.0202 13.4657 54.1302 14.1482C54.1969 14.7685 53.8596 14.9294 53.5835 15.0611C53.4039 15.1468 53.2502 15.2201 53.2502 15.3993ZM43.6352 12.13C43.6352 11.5612 43.8552 10.9925 44.1852 10.9925C44.5152 10.9925 44.9552 11.5612 44.9552 12.6987C44.9552 13.3811 44.8452 13.9499 44.6252 14.6323C44.0752 14.0636 43.6352 13.0399 43.6352 12.13Z" fill="white"/>
</g>
<defs>
<clipPath id="clip0_3_46">
<rect width="56" height="26" fill="white" transform="translate(0.142944 0.5)"/>
</clipPath>
</defs>
</svg>
