<svg width="98" height="23" viewBox="0 0 98 23" fill="none" xmlns="http://www.w3.org/2000/svg">
<g clip-path="url(#clip0_3_48)">
<path d="M19.7791 5.52526C16.219 5.52526 13.4372 8.30406 13.4372 12.0241C13.4372 15.7441 16.1487 18.4991 19.7791 18.4991C23.4095 18.4991 26.1681 15.6965 26.1681 12.0003C26.1681 8.32784 23.4566 5.52526 19.7791 5.52526ZM19.8031 15.8182C17.7757 15.8182 16.2901 14.1992 16.2901 12.025C16.2901 9.82608 17.7517 8.20801 19.7791 8.20801C21.8305 8.20801 23.3152 9.85078 23.3152 12.025C23.3152 14.1992 21.8305 15.8182 19.8031 15.8182ZM26.9456 8.35253H28.7141V18.2585H31.5429V5.76673H26.9456V8.35253ZM6.31794 8.2071C7.80354 8.2071 8.98224 9.14922 9.4297 10.5505H12.424C11.8814 7.55493 9.47685 5.52526 6.34196 5.52526C2.78185 5.52526 0.00012207 8.30406 0.00012207 12.025C0.00012207 15.7459 2.71157 18.5 6.34196 18.5C9.40657 18.5 11.8582 16.4703 12.4009 13.45H9.4297C9.00537 14.8513 7.82667 15.8182 6.34107 15.8182C4.28969 15.8182 2.85212 14.1992 2.85212 12.025C2.85301 9.82608 4.26745 8.2071 6.31794 8.2071ZM80.6959 10.8167L78.6214 10.5029C77.6313 10.3584 76.9241 10.02 76.9241 9.22239C76.9241 8.35253 77.8439 7.91806 79.0929 7.91806C80.4602 7.91806 81.3329 8.52175 81.5215 9.51235H84.256C83.9491 6.99972 82.0632 5.52617 79.1641 5.52617C76.1697 5.52617 74.1895 7.09668 74.1895 9.31935C74.1895 11.4451 75.4865 12.6781 78.1028 13.0641L80.1773 13.3778C81.1914 13.5223 81.7572 13.9339 81.7572 14.7068C81.7572 15.6974 80.7671 16.1081 79.3998 16.1081C77.7256 16.1081 76.7827 15.4075 76.6412 14.3446H73.8595C74.1192 16.785 75.9811 18.5 79.3758 18.5C82.4644 18.5 84.5149 17.0502 84.5149 14.5614C84.5149 12.3387 83.0302 11.1789 80.6959 10.8167ZM30.1285 0.620738C29.0912 0.620738 28.3129 1.39364 28.3129 2.4565C28.3129 3.51936 29.0903 4.29227 30.1285 4.29227C31.1657 4.29227 31.9441 3.51936 31.9441 2.4565C31.9441 1.39364 31.1657 0.620738 30.1285 0.620738ZM71.6435 10.0438C71.6435 7.33815 70.0405 5.52617 66.6459 5.52617C63.4398 5.52617 61.6482 7.19363 61.2941 9.75474H64.0999C64.2413 8.76414 64.9957 7.94276 66.5987 7.94276C68.0372 7.94276 68.7444 8.59492 68.7444 9.39253C68.7444 10.4316 67.4474 10.6969 65.8443 10.8661C63.6755 11.1076 60.9881 11.8805 60.9881 14.78C60.9881 17.0274 62.6152 18.4762 65.2083 18.4762C67.2357 18.4762 68.5087 17.6064 69.1456 16.2288C69.2399 17.4609 70.1357 18.2585 71.3856 18.2585H73.0357V15.6736H71.6444V10.0438H71.6435ZM68.8618 13.1848C68.8618 14.8523 67.4474 16.0843 65.726 16.0843C64.6648 16.0843 63.769 15.6252 63.769 14.6593C63.769 13.4272 65.2074 13.0888 66.5275 12.9442C67.8005 12.8235 68.5078 12.5335 68.8618 11.9774V13.1848ZM53.8448 5.52526C52.2649 5.52526 50.9447 6.20212 50.0018 7.33724V0.5H47.1729V18.2585H49.9546V16.6158C50.8976 17.7994 52.2417 18.5 53.8448 18.5C57.2394 18.5 59.8094 15.7459 59.8094 12.025C59.8094 8.30406 57.1923 5.52526 53.8448 5.52526ZM53.4204 15.8182C51.3931 15.8182 49.9075 14.1992 49.9075 12.025C49.9075 9.85078 51.4162 8.20801 53.4436 8.20801C55.4949 8.20801 56.9325 9.827 56.9325 12.025C56.9325 14.1992 55.4478 15.8182 53.4204 15.8182ZM40.4067 5.52526C38.568 5.52526 37.3652 6.29816 36.658 7.38572V5.76673H33.8523V18.2576H36.6812V11.4689C36.6812 9.55991 37.8599 8.2071 39.6043 8.2071C41.2314 8.2071 42.2446 9.3907 42.2446 11.1066V18.2585H45.0735V10.8899C45.0744 7.74793 43.4954 5.52526 40.4067 5.52526ZM98.0001 11.6143C98.0001 8.0388 95.4541 5.52617 92.0354 5.52617C88.4051 5.52617 85.7408 8.32875 85.7408 12.025C85.7408 15.9151 88.5936 18.5 92.0826 18.5C95.0298 18.5 97.34 16.7118 97.9289 14.1754H94.9817C94.5574 15.2867 93.5202 15.9151 92.1289 15.9151C90.3132 15.9151 88.9459 14.7553 88.6399 12.7256H97.9992V11.6143H98.0001ZM88.8054 10.6475C89.2537 8.90774 90.5267 8.06258 91.9883 8.06258C93.5913 8.06258 94.8172 9.0047 95.1001 10.6475H88.8054Z" fill="white"/>
</g>
<defs>
<clipPath id="clip0_3_48">
<rect width="98" height="22" fill="white" transform="translate(0.00012207 0.5)"/>
</clipPath>
</defs>
</svg>
