<svg width="28" height="28" viewBox="0 0 28 28" fill="none" xmlns="http://www.w3.org/2000/svg">
<circle cx="14" cy="14" r="14" fill="#8578E6"/>
<path d="M20.175 8H7.575C6.70875 8 6 8.70875 6 9.575V19.025C6 19.8913 6.70875 20.6 7.575 20.6H20.175C21.0413 20.6 21.75 19.8913 21.75 19.025V9.575C21.75 8.70875 21.0413 8 20.175 8ZM19.86 11.3469L14.7098 14.5678C14.1979 14.8906 13.5521 14.8906 13.0402 14.5678L7.89 11.3469C7.69313 11.2209 7.575 11.0083 7.575 10.7799C7.575 10.2523 8.14988 9.93725 8.59875 10.2129L13.875 13.5125L19.1513 10.2129C19.6001 9.93725 20.175 10.2523 20.175 10.7799C20.175 11.0083 20.0569 11.2209 19.86 11.3469Z" fill="white"/>
</svg>
