<svg width="94" height="31" viewBox="0 0 94 31" fill="none" xmlns="http://www.w3.org/2000/svg">
<g clip-path="url(#clip0_3_53)">
<path fill-rule="evenodd" clip-rule="evenodd" d="M30.084 11.767L31.7329 16.8454C31.9818 17.6121 31.7117 18.4452 31.0607 18.9187L16.7689 29.3016C16.7679 29.3023 16.7667 29.303 16.7656 29.3036C16.7644 29.3043 16.7633 29.3049 16.7622 29.3057L16.7608 29.3066C16.759 29.3079 16.7569 29.3088 16.7552 29.31C16.7332 29.3252 16.7104 29.3392 16.6868 29.352L16.6839 29.3537L16.681 29.3557C16.6797 29.3565 16.6784 29.3573 16.677 29.358C16.675 29.359 16.6729 29.3604 16.6708 29.3615C16.6692 29.3623 16.6676 29.3628 16.666 29.3635L16.6626 29.365C16.6598 29.3663 16.6568 29.3672 16.654 29.3685C16.6425 29.374 16.6304 29.3784 16.6186 29.3833L16.6049 29.3892L16.6011 29.3909L16.5901 29.3955L16.5807 29.3991L16.5792 29.3998C16.5771 29.4005 16.5753 29.4015 16.5733 29.4022L16.5705 29.4033L16.5655 29.4051L16.5643 29.4054L16.5624 29.4058C16.5591 29.4068 16.5556 29.4073 16.5522 29.4083L16.5486 29.4091C16.5328 29.4139 16.5165 29.4174 16.5002 29.421L16.4966 29.4218C16.4894 29.4234 16.4826 29.4255 16.4755 29.4269L16.4725 29.4276L16.4695 29.4284L16.468 29.4288L16.4659 29.4293C16.462 29.4299 16.4584 29.431 16.4545 29.4317C16.453 29.4319 16.4515 29.432 16.4499 29.432C16.4484 29.4321 16.4468 29.4322 16.4453 29.4324L16.4437 29.4325C16.4099 29.4373 16.3753 29.4407 16.3404 29.4407H16.3392C16.3044 29.4407 16.2702 29.4373 16.2365 29.4325L16.2345 29.4324C16.233 29.4322 16.2315 29.4321 16.23 29.432L16.2282 29.4319L16.2254 29.4317C16.2216 29.4311 16.2179 29.4299 16.2141 29.4293C16.2118 29.4289 16.2097 29.4281 16.2074 29.4276L16.2044 29.4269L16.198 29.4255L16.1922 29.424L16.1837 29.4219L16.1778 29.4206C16.1621 29.4171 16.1463 29.4136 16.131 29.409L16.1272 29.4081C16.124 29.4072 16.1205 29.4067 16.1173 29.4057L16.1143 29.405L16.1095 29.4033L16.1067 29.4022L16.1035 29.4009L16.1008 29.3998L16.0992 29.3991C16.087 29.3948 16.0754 29.3891 16.0634 29.3842L16.0534 29.3801L16.037 29.3735C16.033 29.3718 16.029 29.37 16.0251 29.3682C16.0225 29.3668 16.0195 29.366 16.0169 29.3647L16.0157 29.3642L16.0111 29.3623L16.0089 29.3614L16.007 29.3604L16.003 29.3581C16.0013 29.3572 15.9995 29.356 15.9978 29.355L15.9933 29.3522C15.9696 29.3393 15.9466 29.3252 15.9245 29.3099L15.9217 29.3081L15.9205 29.3075L15.9187 29.3063L15.9261 29.3117C15.9293 29.314 15.9325 29.3164 15.9359 29.3187C15.9314 29.3157 15.9271 29.3126 15.9227 29.3094L15.9176 29.3057C15.9155 29.3041 15.9131 29.3032 15.911 29.3017L1.62117 18.9191C0.969926 18.4454 0.699761 17.6122 0.94873 16.8455L2.60371 11.7668L2.60399 11.7658L2.60444 11.7646L5.86881 1.6959C6.04981 1.15904 6.54345 0.804912 7.10123 0.804912H7.10808C7.67454 0.807836 8.15375 1.15721 8.32881 1.6949L11.4417 11.2611H21.2456L24.3527 1.69544C24.528 1.15721 25.0072 0.807836 25.5736 0.804912C26.1385 0.800435 26.6313 1.15676 26.8103 1.68768L30.0837 11.7654L30.084 11.767ZM28.3855 11.2611L25.5826 2.63184L22.7798 11.2611H28.3855ZM27.8947 12.7203L22.3057 12.7202L18.3154 24.9941L27.8947 12.7203ZM4.79235 12.7203L14.3663 24.9948L10.3817 12.7203H4.79235ZM9.90722 11.2611L7.09922 2.63175L4.30145 11.2611H9.90722ZM2.33629 17.2967C2.28321 17.46 2.34058 17.6379 2.47909 17.7386L12.5808 25.0783L3.56651 13.5213L2.33629 17.2967ZM15.8776 29.2753C15.8803 29.2776 15.883 29.2801 15.8859 29.2824C15.8905 29.286 15.8954 29.2895 15.9002 29.2929L15.905 29.2963L15.9036 29.2951L15.9019 29.2935L15.9011 29.2929C15.8781 29.2755 15.8561 29.2567 15.8352 29.2367L15.8318 29.2339L15.8292 29.2318C15.839 29.2414 15.8492 29.2507 15.8597 29.2597C15.865 29.2645 15.8703 29.2691 15.8758 29.2737L15.8776 29.2753ZM16.3403 26.3499L20.7713 12.7203H11.9157L16.3403 26.3499ZM16.8157 29.2635L16.8202 29.2596C16.8304 29.2507 16.8405 29.2416 16.8501 29.2321L16.8469 29.235C16.846 29.2357 16.845 29.2363 16.8442 29.2372C16.8235 29.2572 16.8015 29.2758 16.7785 29.2932L16.7769 29.2945L16.7761 29.2952L16.7748 29.2964L16.7857 29.2885C16.7884 29.2865 16.7911 29.2846 16.7937 29.2825C16.7964 29.2802 16.7991 29.2777 16.8019 29.2754L16.8038 29.2737C16.8079 29.2704 16.8118 29.267 16.8157 29.2635ZM20.1025 25.076L30.2028 17.7384C30.341 17.6379 30.3982 17.46 30.3451 17.296L29.1198 13.5222L20.1025 25.076Z" fill="white"/>
<path d="M64.2946 7.76144H66.2864L66.2955 20.7718H72.3713V22.6082H64.3038L64.2946 7.76144Z" fill="white"/>
<path fill-rule="evenodd" clip-rule="evenodd" d="M77.9838 11.0035C76.3757 11.0035 74.8956 11.57 73.7444 12.5293L74.448 13.7536C75.2611 13.2785 76.257 12.8034 77.6914 12.8034C79.3268 12.8034 80.0486 13.6439 80.0486 15.0509V15.7727C79.7288 15.7088 79.071 15.6631 78.669 15.6631C75.1789 15.6631 73.4064 16.8874 73.4064 19.4456C73.4064 21.7388 74.8134 22.89 76.9422 22.89C78.3766 22.89 79.7562 22.2322 80.2313 21.1632L80.5968 22.6159H82.0038V15.0144C81.9947 12.6115 80.9531 11.0035 77.9838 11.0035ZM80.0486 20.0029C79.5461 20.5237 78.7147 21.0445 77.5818 21.0445C76.0651 21.0445 75.453 20.2953 75.453 19.3177C75.453 17.8467 76.4762 17.1432 78.6507 17.1432C79.0619 17.1432 79.7197 17.1889 80.0577 17.2528V20.0029H80.0486Z" fill="white"/>
<path fill-rule="evenodd" clip-rule="evenodd" d="M86.5296 12.2227C86.5296 12.2227 87.489 11.0075 89.2706 11.0075C92.1942 11.0075 93.8479 13.1546 93.8571 16.398C93.8571 20.5003 92.0663 22.8758 88.3478 22.8758C86.8951 22.8758 85.5612 22.6565 84.5836 22.2454L84.5744 7.76407H86.5205L86.5296 10.304V12.2227ZM86.5296 20.7927C87.023 21.0211 87.6808 21.1124 88.43 21.1124C90.5862 21.1124 91.7831 19.6415 91.7831 16.5168C91.7831 14.3149 91.043 12.9536 89.1153 12.9536C88.0463 12.9536 87.2057 13.3647 86.5296 13.9312V20.7927Z" fill="white"/>
<path d="M44.6004 9.37222C46.3637 9.37222 47.5058 9.95696 48.2458 10.5508L49.1047 9.06158C47.9443 8.0383 46.3728 7.49011 44.6917 7.49011C40.4524 7.49011 37.4831 10.0757 37.4831 15.2927C37.4831 20.7563 40.69 22.8851 44.3537 22.8851C46.1901 22.8851 47.7525 22.4556 48.7757 22.0262L48.7301 16.188V14.3516H43.2939V16.188H46.7657L46.8114 20.6192C46.3546 20.8476 45.5688 21.0304 44.4999 21.0304C41.5579 21.0304 39.5844 19.1757 39.5844 15.2744C39.5753 11.3 41.6127 9.37222 44.6004 9.37222Z" fill="white"/>
<path d="M56.6812 7.75937H58.6273L58.6364 11.2769H61.8981V12.9032H58.6364V18.8419C58.6364 20.2489 59.3582 21.0895 60.9936 21.0895C61.3134 21.0895 61.6149 21.0712 61.8981 21.0255V22.7706C61.5144 22.8437 61.1124 22.8802 60.7013 22.8802C57.7319 22.8802 56.6903 21.2722 56.6903 18.8693V10.2536L56.6812 7.75937Z" fill="white"/>
<path d="M51.7321 22.6082H53.6782V11.279H51.7321V22.6082Z" fill="white"/>
<path d="M53.6782 9.71661H51.7321V7.77054H53.6782V9.71661Z" fill="white"/>
</g>
<defs>
<clipPath id="clip0_3_53">
<rect width="93" height="30" fill="white" transform="translate(0.857178 0.5)"/>
</clipPath>
</defs>
</svg>
