<svg width="28" height="28" viewBox="0 0 28 28" fill="none" xmlns="http://www.w3.org/2000/svg">
<circle cx="14" cy="14" r="14" fill="#F69267"/>
<g clip-path="url(#clip0_45_13)">
<path d="M20.5532 14.1503C20.5532 13.7097 20.5143 13.2915 20.4473 12.8843H14.1425V15.4006H17.7526C17.5907 16.2266 17.1165 16.9236 16.4135 17.3977V19.0717H18.5671C19.8283 17.906 20.5532 16.187 20.5532 14.1503Z" fill="white"/>
<path d="M14.1424 20.6956C15.9503 20.6956 17.4623 20.093 18.567 19.0723L16.4135 17.3983C15.8109 17.7995 15.0463 18.0454 14.1424 18.0454C12.3961 18.0454 10.917 16.8682 10.3874 15.2776H8.16626V17.0021C9.26556 19.1891 11.5257 20.6956 14.1424 20.6956Z" fill="white"/>
<path d="M10.3875 15.2777C10.2475 14.8759 10.175 14.4462 10.175 14C10.175 13.5538 10.2536 13.1241 10.3875 12.7224V10.9979H8.16635C7.20643 12.8843 7.20643 15.1157 8.16635 17.0021L10.3875 15.2777Z" fill="white"/>
<path d="M14.1424 9.9546C15.1297 9.9546 16.0117 10.2949 16.7087 10.959L18.617 9.05069C17.4623 7.96843 15.9503 7.30434 14.1424 7.30434C11.5257 7.30434 9.26556 8.81087 8.16626 10.9979L10.3874 12.7223C10.917 11.1318 12.3961 9.9546 14.1424 9.9546Z" fill="white"/>
</g>
<defs>
<clipPath id="clip0_45_13">
<rect width="13.3913" height="13.3913" fill="white" transform="translate(7.30432 7.30434)"/>
</clipPath>
</defs>
</svg>
