<svg width="104" height="15" viewBox="0 0 104 15" fill="none" xmlns="http://www.w3.org/2000/svg">
<g clip-path="url(#clip0_3_62)">
<path fill-rule="evenodd" clip-rule="evenodd" d="M102.839 14.2127V0.771234H99.8109V9.44671C99.3089 8.56268 94.8597 0.771234 94.8597 0.771234H90.9296V14.2127H93.9615V5.31109C94.4772 6.20196 99.0597 14.2127 99.0597 14.2127H102.839ZM7.49621 8.99102C7.74548 8.20977 10.1598 0.771234 10.1598 0.771234H14.4213V14.2127H11.4437V4.99932C10.9654 6.53088 8.55481 14.2127 8.55481 14.2127H6.30798C6.30798 14.2127 4.01672 6.61999 3.53528 5.03356V14.2127H0.571411V0.771234H4.84314C4.84314 0.771234 7.24011 8.20635 7.49621 8.99102ZM42.8856 11.6087H49.5577V14.2127H39.6588V0.771234H49.5577V3.38207H42.8856V5.88329H49.0045V8.4873H42.8856V11.6087ZM29.9884 5.86273C30.504 5.27001 34.086 0.771234 34.086 0.771234V0.767816H38.1119L35.3946 3.83978C34.0558 5.35345 32.7037 6.88152 32.6007 6.99688C32.8055 7.24359 38.4227 14.2127 38.4227 14.2127H34.1749C34.1749 14.2127 30.5245 8.93957 29.9884 8.27831V14.2127H26.9427V0.771234H29.9884V5.86273ZM82.5021 0.503961C78.391 0.503961 76.1681 3.31701 76.1681 7.45257C76.1681 11.6019 78.3534 14.4834 82.5021 14.48C86.5997 14.48 88.8329 11.5402 88.8329 7.45257C88.8329 3.37182 86.5587 0.503961 82.5021 0.503961ZM82.5021 11.6567C80.2416 11.6567 79.4017 9.55291 79.4017 7.46282C79.4017 5.42761 80.3031 3.341 82.5021 3.33752C84.7079 3.33752 85.6095 5.42761 85.6095 7.46282C85.6095 9.55291 84.7728 11.6567 82.5021 11.6567ZM57.5768 5.91412C57.7369 5.95526 57.8998 5.99713 58.0636 6.04089C60.0987 6.57202 62.4889 7.33264 62.4889 10.06C62.4889 11.1702 62.1031 12.1467 61.3622 12.8799C60.3446 13.9044 58.6612 14.4731 56.6227 14.4731C54.7582 14.4731 53.587 14.1476 51.6578 13.387L52.525 10.6802C53.9488 11.5127 55.1442 11.8726 56.462 11.8726C57.5924 11.8726 59.2723 11.5059 59.2723 10.4678C59.2723 9.56255 58.223 9.28619 57.0336 8.97295C56.8544 8.92571 56.672 8.87768 56.4894 8.82653L56.3783 8.79443C54.2579 8.18206 51.7977 7.47137 51.7977 4.828C51.7977 2.19317 53.8739 0.534784 57.2338 0.500543C59.0914 0.483392 60.3993 0.874017 62.1066 1.46331L61.4474 4.19756C60.3309 3.57397 59.5045 3.33068 58.0978 3.21417C57.1691 3.14568 55.9943 3.28613 55.4786 3.77612C55.2772 3.97143 55.1852 4.19415 55.192 4.46478C55.2162 5.30749 56.3092 5.58837 57.5768 5.91412ZM69.7259 5.91241C69.8883 5.9541 70.0536 5.99651 70.2196 6.04089C72.2445 6.57202 74.6383 7.33264 74.652 10.06C74.652 11.1702 74.2591 12.1467 73.5284 12.8799C72.5006 13.9044 70.8172 14.4731 68.7821 14.4731C66.9144 14.4731 65.7362 14.1476 63.8104 13.387L64.6813 10.6802C66.1051 11.5127 67.2967 11.8726 68.6183 11.8726C69.7518 11.8726 71.432 11.5059 71.432 10.4678C71.432 9.56316 70.3812 9.28655 69.1925 8.97357C69.0123 8.92614 68.829 8.87792 68.6456 8.82653L68.5301 8.79308C66.4139 8.18102 63.9537 7.46948 63.9537 4.828C63.9537 2.19317 66.0299 0.534784 69.3866 0.500543C71.2474 0.483392 72.5519 0.874017 74.2591 1.46331L73.607 4.19756C72.4801 3.57397 71.6539 3.33068 70.2469 3.21417C69.3251 3.14568 68.1539 3.28613 67.6315 3.77612C67.4366 3.97143 67.3412 4.19415 67.3446 4.46478C67.3627 5.30596 68.4591 5.5874 69.7259 5.91241ZM24.7743 9.75848C23.8866 10.1833 22.8041 10.3752 21.6739 10.3752C18.4708 10.3752 16.4325 8.53185 16.4325 5.45159C16.4325 2.36443 18.4708 0.521112 21.6739 0.521112C22.8041 0.521112 23.8866 0.719842 24.7743 1.13781L23.8524 3.3067C23.3949 3.03259 22.8451 2.87158 22.2543 2.87158C20.6803 2.87158 19.3827 3.65276 19.3827 5.45159C19.3827 7.247 20.6837 8.03161 22.2543 8.03161C22.8451 8.03161 23.3949 7.86718 23.8524 7.58618L24.7743 9.75848ZM17.1571 11.7834H24.4166V14.2093H17.1571V11.7834Z" fill="white"/>
</g>
<defs>
<clipPath id="clip0_3_62">
<rect width="103" height="14" fill="white" transform="translate(0.571411 0.5)"/>
</clipPath>
</defs>
</svg>
