<svg width="137" height="31" viewBox="0 0 137 31" fill="none" xmlns="http://www.w3.org/2000/svg">
<g clip-path="url(#clip0_3_64)">
<path fill-rule="evenodd" clip-rule="evenodd" d="M0.285706 15.44C0.285706 13.3776 2.02692 11.7052 4.17375 11.7052C6.32146 11.7052 8.06277 13.3776 8.06277 15.44C8.06277 17.5034 6.32146 19.1757 4.17375 19.1757C2.02692 19.1757 0.285706 17.5042 0.285706 15.44ZM27.5986 19.1757C25.4509 19.1757 23.7105 17.5034 23.7105 15.44C23.7105 13.3776 25.4509 11.7052 27.5986 11.7052C29.7455 11.7052 31.4876 13.3776 31.4876 15.44C31.4876 17.5034 29.7455 19.1757 27.5986 19.1757ZM27.5986 0.5C19.0096 0.5 12.0455 7.18926 12.0455 15.44C12.0455 23.6925 19.0086 30.3811 27.5986 30.3811C36.1895 30.3811 43.1527 23.6925 43.1527 15.44C43.1527 7.19011 36.1895 0.5 27.5986 0.5Z" fill="white"/>
<path fill-rule="evenodd" clip-rule="evenodd" d="M134.561 14.284C134.802 14.284 134.944 14.1781 134.944 13.9865C134.944 13.812 134.847 13.6977 134.579 13.6977H134.33V14.2838L134.561 14.284ZM133.965 13.4015H134.641C135.014 13.4015 135.335 13.5502 135.335 13.9686C135.336 14.0717 135.305 14.1726 135.246 14.2584C135.188 14.3441 135.104 14.4109 135.006 14.4499L135.415 15.176H135.006L134.694 14.5641H134.33V15.176H133.965V13.4015ZM135.929 14.3098C135.929 13.4891 135.352 12.903 134.606 12.903C133.859 12.903 133.29 13.4891 133.29 14.3098C133.29 15.1408 133.859 15.7079 134.606 15.7079C135.352 15.7079 135.93 15.1408 135.93 14.3098H135.929ZM132.934 14.3098C132.934 13.2872 133.689 12.5885 134.606 12.5885C135.53 12.5885 136.286 13.2872 136.286 14.3098C136.286 15.3325 135.53 16.0319 134.606 16.0319C133.689 16.0319 132.933 15.3325 132.933 14.3098H132.934ZM121.779 21.299C121.889 21.2979 121.994 21.2548 122.071 21.179C122.149 21.1032 122.193 21.0007 122.194 20.8934V19.3938C122.194 19.2869 122.15 19.1845 122.073 19.1086C121.996 19.0328 121.891 18.9895 121.781 18.9881H121.715C121.528 18.9881 121.343 18.8059 121.343 18.6221V9.73625C121.343 9.53357 121.135 9.33055 120.929 9.33055H119.41C119.204 9.33055 118.998 9.53331 118.998 9.73625V19.5803L119.004 19.8362C119.004 20.5692 119.75 21.3014 120.496 21.3014L121.779 21.299ZM54.9048 11.6775C56.972 11.6775 58.7169 13.3988 58.7169 15.4398C58.7176 16.4275 58.3165 17.3751 57.6018 18.0745C56.8871 18.774 55.9171 19.168 54.9048 19.1703C52.813 19.1703 51.1122 17.4988 51.1122 15.4398C51.1122 13.3653 52.813 11.6775 54.9048 11.6775ZM54.9048 9.30824C51.4847 9.30824 48.7015 12.0582 48.7015 15.4398C48.7015 18.8601 51.4248 21.5405 54.9048 21.5405C58.3945 21.5405 61.1276 18.8601 61.1276 15.439C61.1276 12.0591 58.3354 9.30824 54.9048 9.30824ZM104.407 18.8696C104.295 19.1833 103.62 19.7728 102.851 19.7728C102.044 19.7728 101.594 19.2933 101.594 18.574C101.594 17.8177 102.137 17.3571 103.132 17.3571C103.826 17.3571 104.407 17.615 104.407 17.615V18.8696ZM103.394 12.5816C101.987 12.5816 100.618 12.9313 100.43 13.0053C100.242 13.0602 100.073 13.2079 100.148 13.5217L100.337 14.4808C100.374 14.7387 100.543 14.9414 100.824 14.8494C101.331 14.7016 102.475 14.5357 103.264 14.5357C104.182 14.5357 104.501 15.0522 104.463 16.1402C104.463 16.1402 103.676 15.9004 102.794 15.9004C100.599 15.9004 99.3411 17.0622 99.3411 18.5739C99.3411 20.4 100.543 21.4872 102.268 21.4872C102.772 21.4947 103.272 21.404 103.739 21.2204C104.206 21.0368 104.631 20.7641 104.989 20.4181V20.8762C104.989 21.098 105.177 21.2818 105.402 21.2818H105.555C105.572 21.2845 105.59 21.2856 105.607 21.2851H106.246C106.356 21.2837 106.46 21.2405 106.537 21.1646C106.615 21.0888 106.658 20.9863 106.659 20.8793V16.2878C106.659 13.964 106.095 12.5813 103.394 12.5813V12.5816ZM87.6453 12.5816C85.9842 12.5816 85.1782 13.4572 84.8559 13.8104V13.1711C84.8552 13.0642 84.8115 12.9618 84.7343 12.8859C84.657 12.8101 84.5524 12.7668 84.4428 12.7655H83.4616C83.3519 12.7666 83.2472 12.8098 83.1699 12.8857C83.0926 12.9616 83.049 13.0641 83.0485 13.1711V20.8796C83.0524 20.9856 83.0971 21.0862 83.1737 21.1613C83.2502 21.2365 83.353 21.2808 83.4616 21.2853H84.8497C85.2628 21.2853 85.394 21.1924 85.394 20.8796V16.0113C85.6001 15.4209 86.1444 14.6836 87.2701 14.6836C88.32 14.6836 88.7701 15.366 88.7701 16.4719V20.8796C88.7701 21.1005 88.9585 21.2853 89.1841 21.2853H90.7026C90.8111 21.2808 90.9139 21.2365 90.9905 21.1613C91.067 21.0862 91.1117 20.9856 91.1156 20.8796V16.4719C91.1156 14.4069 90.4022 12.5816 87.6453 12.5816ZM66.9892 19.3861C65.9005 19.3861 65.188 18.9065 65.188 18.9065V15.8626C65.3757 15.3831 65.9763 14.6827 67.1019 14.6827C68.4522 14.6827 69.1462 15.8446 69.1462 17.0426C69.1462 18.2414 68.4152 19.3852 66.9883 19.3852L66.9892 19.3861ZM67.4208 12.5816C65.638 12.5816 64.6498 13.7761 64.5908 13.8509V13.172C64.5904 13.0649 64.5468 12.9623 64.4695 12.8862C64.3923 12.8102 64.2875 12.7668 64.1778 12.7655H63.2556C63.1461 12.7671 63.0417 12.8104 62.9646 12.8862C62.8875 12.962 62.844 13.0643 62.8433 13.1711V24.3454C62.847 24.4514 62.8915 24.5521 62.9679 24.6274C63.0443 24.7028 63.147 24.7472 63.2556 24.7519H64.7758C64.9818 24.7519 65.188 24.5482 65.188 24.3454V21.1375C65.5817 21.2852 66.4078 21.4881 67.2701 21.4881C69.8596 21.4881 71.5666 19.533 71.5666 17.0434C71.5666 14.4618 69.7839 12.5816 67.4208 12.5816ZM129.287 15.9554C129.25 15.1253 128.575 14.4799 127.618 14.4799C126.567 14.4799 125.892 15.1072 125.78 15.9554H129.287ZM127.676 12.5807C129.926 12.5807 131.651 14.2221 131.651 16.5269C131.651 16.6559 131.631 16.9506 131.614 17.0803C131.604 17.1822 131.557 17.2771 131.481 17.348C131.405 17.4188 131.306 17.4611 131.201 17.4671H125.649C125.669 18.5181 126.549 19.4402 127.807 19.4402C128.669 19.4402 129.269 19.1265 129.663 18.8129C129.87 18.6469 130.095 18.629 130.226 18.8129L130.957 19.7719C131.107 19.9378 131.126 20.1415 130.92 20.3254C130.025 21.0826 128.878 21.4956 127.693 21.4872C125.105 21.4872 123.303 19.4591 123.303 17.0245C123.303 14.6278 125.105 12.5816 127.675 12.5816L127.676 12.5807ZM112.993 19.3861C111.867 19.3861 111.266 18.6848 111.079 18.2053V15.1631C111.079 15.1631 111.792 14.6836 112.88 14.6836C114.306 14.6836 115.038 15.8266 115.038 17.0254C115.038 18.2242 114.343 19.3861 112.993 19.3861ZM113.199 12.5816C112.336 12.5816 111.473 12.7843 111.079 12.9503V9.70443C111.075 9.59851 111.03 9.49792 110.954 9.42273C110.877 9.34754 110.774 9.3033 110.666 9.29883H109.146C108.94 9.29883 108.734 9.5015 108.734 9.70443V20.8796C108.738 20.9854 108.783 21.0859 108.859 21.1611C108.935 21.2362 109.038 21.2806 109.146 21.2853H109.803C109.817 21.2853 109.827 21.2852 109.84 21.282H110.016C110.126 21.2811 110.231 21.238 110.309 21.1621C110.387 21.0862 110.431 20.9836 110.431 20.8764V20.2465L110.441 20.2139C110.441 20.2139 111.437 21.4858 113.33 21.4858C115.695 21.4858 117.402 19.4578 117.402 17.024C117.402 14.5344 115.77 12.5802 113.2 12.5802L113.199 12.5816ZM99.9251 9.29883H91.1014C91.0544 9.29905 91.0081 9.30824 90.9648 9.32599C90.9215 9.34373 90.8822 9.36965 90.8492 9.40221C90.8161 9.43477 90.7899 9.47339 90.7721 9.5158C90.7544 9.55822 90.7454 9.6036 90.7456 9.64942V11.1619C90.7456 11.3457 90.8954 11.5117 91.1014 11.5117H94.2846V20.9347C94.2872 21.0264 94.3256 21.1137 94.3918 21.1788C94.4581 21.2439 94.5473 21.282 94.6414 21.2853H96.3853C96.4794 21.2822 96.5688 21.2442 96.6353 21.1791C96.7017 21.1139 96.7402 21.0265 96.7429 20.9347V11.5117H99.9251C99.9722 11.5116 100.019 11.5023 100.062 11.4846C100.106 11.467 100.145 11.4411 100.178 11.4085C100.211 11.376 100.237 11.3374 100.255 11.2949C100.273 11.2525 100.282 11.2069 100.282 11.161V9.64942C100.282 9.60353 100.273 9.55808 100.255 9.51561C100.237 9.47313 100.211 9.43448 100.178 9.40191C100.145 9.36934 100.106 9.34348 100.062 9.32579C100.019 9.3081 99.9722 9.29894 99.9251 9.29883ZM78.9202 15.9554C78.8822 15.1253 78.2068 14.4799 77.2502 14.4799C76.2003 14.4799 75.5239 15.1072 75.412 15.9554H78.9202ZM77.3066 12.5807C79.5579 12.5807 81.2834 14.2221 81.2834 16.5269C81.2834 16.6559 81.2667 16.9506 81.2464 17.0803C81.2358 17.1821 81.1883 17.2769 81.1127 17.3478C81.037 17.4186 80.938 17.4609 80.8333 17.4671H75.2808C75.3008 18.5181 76.181 19.4402 77.4387 19.4402C78.3019 19.4402 78.9009 19.1265 79.2955 18.8129C79.5015 18.6469 79.7271 18.629 79.8583 18.8129L80.5893 19.7719C80.7398 19.9378 80.7585 20.1415 80.5524 20.3254C79.6572 21.0826 78.5099 21.4956 77.3252 21.4872C74.7366 21.4872 72.9363 19.4591 72.9363 17.0245C72.9363 14.6278 74.7366 12.5816 77.3067 12.5816L77.3066 12.5807Z" fill="white"/>
</g>
<defs>
<clipPath id="clip0_3_64">
<rect width="136" height="30" fill="white" transform="translate(0.285706 0.5)"/>
</clipPath>
</defs>
</svg>
